<svg width="128" height="117" viewBox="0 0 128 117" fill="none" xmlns="http://www.w3.org/2000/svg">
<g clip-path="url(#clip0_213_343)">
<path d="M87.9521 86.2099C86.8569 86.2099 85.791 85.7355 85.06 84.8666L65.9285 62.1482V82.4534C65.9285 84.527 64.239 86.2087 62.1559 86.2087C60.0728 86.2087 58.3833 84.527 58.3833 82.4534V51.8226C58.3833 50.244 59.375 48.8332 60.8664 48.2938C62.3566 47.7545 64.0282 48.201 65.0467 49.4107L84.1782 72.1291V51.8239C84.1782 49.7504 85.8677 48.0687 87.9508 48.0687C90.0339 48.0687 91.7234 49.7504 91.7234 51.8239V82.4547C91.7234 84.0334 90.7317 85.4441 89.2403 85.9835C88.8186 86.1362 88.3828 86.2099 87.9521 86.2099Z" fill="#0000FF"/>
<path d="M91.9652 42.3264C82.3177 42.3264 74.4683 34.5132 74.4683 24.9102C74.4683 15.3071 82.3177 7.4939 91.9652 7.4939C101.613 7.4939 109.462 15.3071 109.462 24.9102C109.462 34.5132 101.613 42.3264 91.9652 42.3264ZM91.9652 15.0044C86.4775 15.0044 82.0135 19.4478 82.0135 24.9102C82.0135 30.3726 86.4775 34.816 91.9652 34.816C97.4529 34.816 101.917 30.3726 101.917 24.9102C101.917 19.4478 97.4529 15.0044 91.9652 15.0044Z" fill="#0000FF"/>
<path d="M124.026 42.3264C121.943 42.3264 120.254 40.6447 120.254 38.5712V12.8125L118.238 14.8084C116.761 16.2713 114.372 16.265 112.903 14.7944C111.433 13.3239 111.44 10.9463 112.917 9.48342L121.366 1.11684C122.446 0.0470049 124.067 -0.271019 125.474 0.311601C126.881 0.894221 127.799 2.26172 127.799 3.77934V38.5699C127.799 40.6434 126.11 42.3251 124.026 42.3251V42.3264Z" fill="#0000FF"/>
<path d="M75.7987 3.75523C75.7987 5.83002 74.1105 7.51046 72.0261 7.51046H65.7384V38.5712C65.7384 40.646 64.0501 42.3265 61.9658 42.3265C59.8814 42.3265 58.1931 40.646 58.1931 38.5712V7.51046H51.9054C49.821 7.51046 48.1328 5.83002 48.1328 3.75523C48.1328 1.68044 49.8198 0 51.9042 0H72.0261C74.1105 0 75.7987 1.68044 75.7987 3.75523Z" fill="#0000FF"/>
<path d="M38.0329 0.0241699H6.97398C3.12851 0.0241699 0 3.13826 0 6.966V79.305C0 83.1328 3.12851 86.2469 6.97398 86.2469H38.0329C41.8784 86.2469 45.0069 83.1328 45.0069 79.305V6.966C45.0069 3.13826 41.8784 0.0241699 38.0329 0.0241699ZM37.4297 75.6885C37.4297 77.3269 36.0955 78.655 34.4494 78.655H10.5575C8.91141 78.655 7.57591 77.3269 7.57591 75.6885V10.4057C7.57591 8.76729 8.91141 7.43922 10.5575 7.43922H34.4494C36.0955 7.43922 37.4297 8.76729 37.4297 10.4057V75.6885Z" fill="#0000FF"/>
<path d="M124.025 86.2099H103.715C101.632 86.2099 99.9424 84.5282 99.9424 82.4547C99.9424 80.3812 101.632 78.6995 103.715 78.6995H124.025C126.108 78.6995 127.797 80.3812 127.797 82.4547C127.797 84.5282 126.108 86.2099 124.025 86.2099Z" fill="#0000FF"/>
<path d="M124.025 55.5792H103.715C101.632 55.5792 99.9424 53.8975 99.9424 51.824C99.9424 49.7504 101.632 48.0687 103.715 48.0687H124.025C126.108 48.0687 127.797 49.7504 127.797 51.824C127.797 53.8975 126.108 55.5792 124.025 55.5792Z" fill="#0000FF"/>
<path d="M115.549 70.8939H104.528C102.445 70.8939 100.755 69.2122 100.755 67.1387C100.755 65.0651 102.445 63.3834 104.528 63.3834H115.549C117.632 63.3834 119.322 65.0651 119.322 67.1387C119.322 69.2122 117.632 70.8939 115.549 70.8939Z" fill="#0000FF"/>
<path d="M19.6694 104.017C19.6694 106.622 19.1685 108.797 18.1678 110.541C17.1659 112.287 15.7179 113.6 13.8214 114.48C11.9248 115.36 9.64235 115.8 6.97264 115.8H0.393555V92.6748H7.68703C10.1242 92.6748 12.2379 93.1048 14.0271 93.9634C15.8176 94.8234 17.2055 96.0929 18.1908 97.7759C19.1761 99.4576 19.6694 101.537 19.6694 104.016V104.017ZM14.5524 104.143C14.5524 102.434 14.3006 101.03 13.7984 99.9283C13.2948 98.8267 12.5536 98.0112 11.5734 97.4846C10.5932 96.958 9.38292 96.6934 7.94263 96.6934H5.32147V111.751H7.43399C9.83916 111.751 11.6271 111.114 12.7977 109.837C13.9683 108.561 14.5537 106.663 14.5537 104.143H14.5524Z" fill="#0000FF"/>
<path d="M38.217 97.786C38.4611 97.786 38.7435 97.7987 39.0669 97.8254C39.3902 97.8522 39.6522 97.8865 39.8528 97.9285L39.4873 102.452C39.3288 102.4 39.1039 102.359 38.8113 102.334C38.5186 102.308 38.2681 102.294 38.0572 102.294C37.4323 102.294 36.8253 102.373 36.2374 102.532C35.6495 102.69 35.123 102.946 34.6565 103.299C34.19 103.653 33.822 104.117 33.5523 104.691C33.2814 105.266 33.1472 105.969 33.1472 106.803V115.803H28.2998V98.1193H31.9702L32.6859 101.093H32.9236C33.2737 100.493 33.7108 99.9422 34.2348 99.441C34.76 98.9398 35.3581 98.5391 36.0304 98.2389C36.7026 97.9387 37.431 97.7885 38.2157 97.7885L38.217 97.786Z" fill="#0000FF"/>
<path d="M49.71 91.189C50.4295 91.189 51.0494 91.3556 51.5695 91.6876C52.0884 92.0196 52.3478 92.6392 52.3478 93.5462C52.3478 94.4532 52.0884 95.0625 51.5695 95.4047C51.0506 95.7469 50.4308 95.9186 49.71 95.9186C48.9892 95.9186 48.3566 95.7469 47.8429 95.4047C47.3291 95.0625 47.0723 94.443 47.0723 93.5462C47.0723 92.6493 47.3291 92.0196 47.8429 91.6876C48.3566 91.3556 48.979 91.189 49.71 91.189ZM52.1254 98.1168V115.8H47.278V98.1168H52.1254Z" fill="#0000FF"/>
<path d="M63.8394 91.189C64.5589 91.189 65.1788 91.3556 65.6989 91.6876C66.2178 92.0196 66.4772 92.6392 66.4772 93.5462C66.4772 94.4532 66.2178 95.0625 65.6989 95.4047C65.18 95.7469 64.5602 95.9186 63.8394 95.9186C63.1186 95.9186 62.486 95.7469 61.9723 95.4047C61.4585 95.0625 61.2017 94.443 61.2017 93.5462C61.2017 92.6493 61.4585 92.0196 61.9723 91.6876C62.486 91.3556 63.1084 91.189 63.8394 91.189ZM66.2548 98.1168V115.8H61.4074V98.1168H66.2548Z" fill="#0000FF"/>
<path d="M77.9688 91.189C78.6883 91.189 79.3082 91.3556 79.8283 91.6876C80.3472 92.0196 80.6066 92.6392 80.6066 93.5462C80.6066 94.4532 80.3472 95.0625 79.8283 95.4047C79.3094 95.7469 78.6896 95.9186 77.9688 95.9186C77.248 95.9186 76.6154 95.7469 76.1017 95.4047C75.5879 95.0625 75.3311 94.443 75.3311 93.5462C75.3311 92.6493 75.5879 92.0196 76.1017 91.6876C76.6154 91.3556 77.2378 91.189 77.9688 91.189ZM80.3842 98.1168V115.8H75.5368V98.1168H80.3842Z" fill="#0000FF"/>
<path d="M93.8935 115.801L87.124 98.118H92.1925L95.6252 108.193C95.8156 108.785 95.9677 109.407 96.0776 110.06C96.1888 110.714 96.2655 111.3 96.3076 111.816H96.4342C96.4661 111.258 96.5428 110.661 96.6642 110.029C96.7856 109.396 96.9466 108.785 97.1486 108.194L100.566 98.1193H105.636L98.8662 115.803H93.8922L93.8935 115.801Z" fill="#0000FF"/>
<path d="M119.704 97.786C121.345 97.786 122.76 98.1002 123.947 98.7274C125.133 99.3545 126.049 100.264 126.696 101.456C127.341 102.648 127.665 104.103 127.665 105.822V108.163H116.207C116.26 109.522 116.67 110.591 117.439 111.366C118.207 112.142 119.275 112.528 120.641 112.528C121.774 112.528 122.812 112.413 123.755 112.18C124.698 111.948 125.667 111.601 126.663 111.137V114.869C125.783 115.302 124.864 115.618 123.906 115.818C122.947 116.018 121.785 116.118 120.418 116.118C118.638 116.118 117.062 115.791 115.691 115.137C114.319 114.484 113.244 113.487 112.465 112.148C111.687 110.808 111.297 109.122 111.297 107.086C111.297 105.051 111.65 103.298 112.354 101.922C113.058 100.545 114.041 99.5122 115.301 98.8215C116.561 98.1308 118.029 97.786 119.703 97.786H119.704ZM119.735 101.218C118.791 101.218 118.011 101.518 117.391 102.12C116.771 102.722 116.413 103.666 116.319 104.952H123.12C123.11 104.234 122.979 103.597 122.73 103.038C122.481 102.48 122.11 102.037 121.618 101.71C121.126 101.383 120.498 101.219 119.735 101.219V101.218Z" fill="#0000FF"/>
</g>
<defs>
<clipPath id="clip0_213_343">
<rect width="127.799" height="116.118" fill="white"/>
</clipPath>
</defs>
</svg>
