<svg width="128" height="117" viewBox="0 0 128 117" fill="none" xmlns="http://www.w3.org/2000/svg">
<mask id="mask0_411_279" style="mask-type:luminance" maskUnits="userSpaceOnUse" x="0" y="0" width="128" height="116">
<path d="M127.669 0H0V116H127.669V0Z" fill="white"/>
</mask>
<g mask="url(#mask0_411_279)">
<mask id="mask1_411_279" style="mask-type:luminance" maskUnits="userSpaceOnUse" x="0" y="0" width="128" height="116">
<path d="M127.669 0H0V116H127.669V0Z" fill="white"/>
</mask>
<g mask="url(#mask1_411_279)">
<path d="M89.1531 85.898C90.6432 85.3569 91.6309 83.9493 91.6309 82.3729V51.7702C91.6309 49.6994 89.942 48.0184 87.8616 48.0184C85.7811 48.0184 84.0924 49.6994 84.0924 51.7702V72.0537L64.9773 49.3563C63.9605 48.1464 62.2892 47.7043 60.7991 48.2395C59.3089 48.7804 58.3213 50.1881 58.3213 51.7645V82.3671C58.3213 84.4379 60.0102 86.1189 62.0905 86.1189C64.1709 86.1189 65.8598 84.4379 65.8598 82.3671V62.0836L84.9747 84.781C85.7052 85.6478 86.7688 86.1248 87.8616 86.1248C88.294 86.1248 88.7265 86.0492 89.1472 85.898H89.1531Z" fill="url(#paint0_linear_411_279)"/>
<path d="M91.8763 42.2829C101.513 42.2829 109.355 34.4767 109.355 24.8846C109.355 15.2926 101.513 7.48633 91.8763 7.48633C82.2398 7.48633 74.3975 15.2926 74.3975 24.8846C74.3975 34.4767 82.2398 42.2829 91.8763 42.2829ZM91.8763 14.9901C97.3578 14.9901 101.816 19.4283 101.816 24.8846C101.816 30.3408 97.3578 34.7792 91.8763 34.7792C86.3947 34.7792 81.9359 30.3408 81.9359 24.8846C81.9359 19.4283 86.3947 14.9901 91.8763 14.9901Z" fill="url(#paint1_linear_411_279)"/>
<path d="M125.349 0.314191C123.94 -0.267497 122.322 0.0524315 121.246 1.11692L112.808 9.47574C111.33 10.9358 111.324 13.3149 112.796 14.7807C114.264 16.2467 116.653 16.2582 118.126 14.7924L120.142 12.7972V38.5311C120.142 40.6019 121.831 42.283 123.911 42.283C125.992 42.283 127.681 40.6019 127.681 38.5311V3.77524C127.681 2.25703 126.763 0.895879 125.361 0.314191H125.349Z" fill="url(#paint2_linear_411_279)"/>
<path d="M61.9031 42.283C63.9834 42.283 65.6722 40.6018 65.6722 38.531V7.50378H71.9543C74.0347 7.50378 75.7236 5.8227 75.7236 3.75189C75.7236 1.68108 74.0347 0 71.9543 0H51.8518C49.7713 0 48.0825 1.68108 48.0825 3.75189C48.0825 5.8227 49.7713 7.50378 51.8518 7.50378H58.1338V38.531C58.1338 40.6018 59.8226 42.283 61.9031 42.283Z" fill="url(#paint3_linear_411_279)"/>
<path d="M37.9962 0.0233154H6.96578C3.12642 0.0233154 0 3.13534 0 6.95704V79.226C0 83.0477 3.12642 86.1597 6.96578 86.1597H37.9904C41.8297 86.1597 44.9562 83.0477 44.9562 79.226V6.95704C44.962 3.13534 41.8356 0.0233154 37.9962 0.0233154ZM37.3943 75.6137C37.3943 77.2482 36.0619 78.5745 34.414 78.5745H10.548C8.90591 78.5745 7.56769 77.2482 7.56769 75.6137V10.3949C7.56769 8.76027 8.90007 7.42821 10.548 7.42821H34.414C36.0561 7.42821 37.3943 8.75446 37.3943 10.3949V75.6137Z" fill="url(#paint4_linear_411_279)"/>
<path d="M123.9 78.621H103.611C101.53 78.621 99.8408 80.3021 99.8408 82.3729C99.8408 84.4437 101.53 86.1248 103.611 86.1248H123.9C125.98 86.1248 127.669 84.4437 127.669 82.3729C127.669 80.3021 125.98 78.621 123.9 78.621Z" fill="url(#paint5_linear_411_279)"/>
<path d="M123.9 48.0183H103.611C101.53 48.0183 99.8408 49.6994 99.8408 51.7702C99.8408 53.841 101.53 55.5221 103.611 55.5221H123.9C125.98 55.5221 127.669 53.841 127.669 51.7702C127.669 49.6994 125.98 48.0183 123.9 48.0183Z" fill="url(#paint6_linear_411_279)"/>
<path d="M104.422 70.8265H115.432C117.513 70.8265 119.202 69.1453 119.202 67.0746C119.202 65.0038 117.513 63.3226 115.432 63.3226H104.422C102.342 63.3226 100.653 65.0038 100.653 67.0746C100.653 69.1453 102.342 70.8265 104.422 70.8265Z" fill="url(#paint7_linear_411_279)"/>
<path d="M14.0134 93.8732C12.2252 93.0124 10.1156 92.5874 7.67879 92.5874H0.391602V115.692H6.96585C9.63064 115.692 11.9155 115.25 13.8089 114.371C15.7023 113.493 17.1515 112.179 18.1508 110.439C19.1501 108.695 19.6527 106.524 19.6527 103.919C19.6527 101.313 19.1618 99.3639 18.1742 97.6832C17.1925 96.0016 15.8016 94.7341 14.0134 93.8732ZM12.7804 109.73C11.6116 111.004 9.82342 111.644 7.42167 111.644H5.31206V96.6008H7.93007C9.36764 96.6008 10.5773 96.8625 11.5591 97.3923C12.5349 97.9212 13.2771 98.7356 13.7797 99.8353C14.2823 100.934 14.5335 102.337 14.5335 104.047C14.5335 106.565 13.9491 108.462 12.7804 109.735V109.73Z" fill="url(#paint8_linear_411_279)"/>
<path d="M38.1772 97.6886C37.3941 97.6886 36.6636 97.84 35.9974 98.1363C35.3254 98.4391 34.7293 98.8349 34.2034 99.3346C33.6775 99.8353 33.2451 100.388 32.8944 100.987H32.6548L31.9418 98.0141H28.2778V115.68H33.1223V106.687C33.1223 105.856 33.2567 105.152 33.5255 104.576C33.7943 104 34.1625 103.54 34.63 103.186C35.0974 102.831 35.6234 102.575 36.2078 102.418C36.798 102.261 37.4 102.179 38.0253 102.179C38.2356 102.179 38.4869 102.191 38.7791 102.22C39.0712 102.249 39.2933 102.284 39.4511 102.337L39.8135 97.8163C39.6147 97.7761 39.3517 97.7415 39.0304 97.7123C38.7089 97.6886 38.4226 97.6713 38.183 97.6713L38.1772 97.6886Z" fill="url(#paint9_linear_411_279)"/>
<path d="M51.5188 91.5988C50.9987 91.2668 50.3792 91.0981 49.6604 91.0981C48.9417 91.0981 48.3105 91.2668 47.7963 91.5988C47.2821 91.9298 47.0249 92.5527 47.0249 93.4536C47.0249 94.3555 47.2821 94.9665 47.7963 95.3094C48.3105 95.6532 48.93 95.821 49.6604 95.821C50.3909 95.821 50.9987 95.6532 51.5188 95.3094C52.0388 94.9665 52.296 94.3501 52.296 93.4536C52.296 92.5581 52.0388 91.9298 51.5188 91.5988Z" fill="url(#paint10_linear_411_279)"/>
<path d="M52.074 98.0206H47.2295V115.686H52.074V98.0206Z" fill="url(#paint11_linear_411_279)"/>
<path d="M66.1926 98.0206H61.3481V115.686H66.1926V98.0206Z" fill="url(#paint12_linear_411_279)"/>
<path d="M65.6311 91.5988C65.111 91.2668 64.4915 91.0981 63.7727 91.0981C63.054 91.0981 62.4228 91.2668 61.9086 91.5988C61.3943 91.9298 61.1372 92.5527 61.1372 93.4536C61.1372 94.3555 61.3943 94.9665 61.9086 95.3094C62.4228 95.6532 63.0423 95.821 63.7727 95.821C64.5032 95.821 65.111 95.6532 65.6311 95.3094C66.1511 94.9665 66.4083 94.3501 66.4083 93.4536C66.4083 92.5581 66.1511 91.9298 65.6311 91.5988Z" fill="url(#paint13_linear_411_279)"/>
<path d="M79.7502 91.5988C79.2301 91.2668 78.6107 91.0981 77.8919 91.0981C77.1731 91.0981 76.542 91.2668 76.0277 91.5988C75.5135 91.9298 75.2563 92.5527 75.2563 93.4536C75.2563 94.3555 75.5135 94.9665 76.0277 95.3094C76.542 95.6532 77.1614 95.821 77.8919 95.821C78.6223 95.821 79.2301 95.6532 79.7502 95.3094C80.2703 94.9665 80.5274 94.3501 80.5274 93.4536C80.5274 92.5581 80.2703 91.9298 79.7502 91.5988Z" fill="url(#paint14_linear_411_279)"/>
<path d="M80.3049 98.0206H75.4604V115.686H80.3049V98.0206Z" fill="url(#paint15_linear_411_279)"/>
<path d="M97.0538 108.084C96.855 108.676 96.6909 109.282 96.5687 109.916C96.4456 110.55 96.3699 111.143 96.3407 111.701H96.2121C96.1711 111.184 96.0954 110.602 95.9841 109.95C95.8729 109.299 95.7206 108.676 95.5337 108.084L92.1039 98.0206H87.0371L93.7983 115.686H98.7655L105.526 98.0206H100.46L97.0474 108.084H97.0538Z" fill="url(#paint16_linear_411_279)"/>
<path d="M123.824 98.6306C122.638 98.0032 121.223 97.6886 119.587 97.6886C117.951 97.6886 116.45 98.0315 115.187 98.7245C113.924 99.4167 112.943 100.446 112.242 101.819C111.541 103.191 111.184 104.914 111.184 106.978C111.184 109.043 111.575 110.695 112.352 112.033C113.13 113.371 114.205 114.366 115.579 115.017C116.946 115.669 118.524 115.994 120.301 115.994C121.668 115.994 122.825 115.896 123.783 115.692C124.742 115.494 125.659 115.175 126.535 114.744V111.015C125.542 111.48 124.572 111.823 123.631 112.057C122.691 112.289 121.65 112.405 120.522 112.405C119.155 112.405 118.091 112.016 117.326 111.242C116.56 110.468 116.145 109.398 116.093 108.043H127.54V105.704C127.54 103.988 127.219 102.535 126.571 101.342C125.922 100.149 125.011 99.2416 123.824 98.6133V98.6306ZM116.204 104.849C116.297 103.564 116.654 102.621 117.273 102.022C117.892 101.423 118.67 101.121 119.617 101.121C120.376 101.121 121.007 101.283 121.498 101.609C121.989 101.935 122.363 102.377 122.609 102.936C122.854 103.494 122.988 104.128 123 104.849H116.204Z" fill="url(#paint17_linear_411_279)"/>
</g>
</g>
<defs>
<linearGradient id="paint0_linear_411_279" x1="91.7714" y1="50.3568" x2="58.3418" y2="83.9406" gradientUnits="userSpaceOnUse">
<stop stop-color="#CAE6FF"/>
<stop offset="0.43" stop-color="#0F7C48"/>
<stop offset="1" stop-color="#090909"/>
</linearGradient>
<linearGradient id="paint1_linear_411_279" x1="104.23" y1="12.5878" x2="79.6306" y2="37.295" gradientUnits="userSpaceOnUse">
<stop stop-color="#CAE6FF"/>
<stop offset="0.43" stop-color="#0F7C48"/>
<stop offset="1" stop-color="#090909"/>
</linearGradient>
<linearGradient id="paint2_linear_411_279" x1="135.284" y1="9.80157" x2="112.604" y2="32.592" gradientUnits="userSpaceOnUse">
<stop stop-color="#CAE6FF"/>
<stop offset="0.43" stop-color="#0F7C48"/>
<stop offset="1" stop-color="#090909"/>
</linearGradient>
<linearGradient id="paint3_linear_411_279" x1="75.817" y1="2.29185" x2="48.1174" y2="30.1138" gradientUnits="userSpaceOnUse">
<stop stop-color="#CAE6FF"/>
<stop offset="0.43" stop-color="#0F7C48"/>
<stop offset="1" stop-color="#090909"/>
</linearGradient>
<linearGradient id="paint4_linear_411_279" x1="53.3127" y1="12.4016" x2="-8.06634" y2="74.0645" gradientUnits="userSpaceOnUse">
<stop stop-color="#CAE6FF"/>
<stop offset="0.43" stop-color="#0F7C48"/>
<stop offset="1" stop-color="#090909"/>
</linearGradient>
<linearGradient id="paint5_linear_411_279" x1="121.493" y1="74.6714" x2="106.089" y2="90.1455" gradientUnits="userSpaceOnUse">
<stop stop-color="#CAE6FF"/>
<stop offset="0.43" stop-color="#0F7C48"/>
<stop offset="1" stop-color="#090909"/>
</linearGradient>
<linearGradient id="paint6_linear_411_279" x1="121.493" y1="44.0687" x2="106.089" y2="59.5428" gradientUnits="userSpaceOnUse">
<stop stop-color="#CAE6FF"/>
<stop offset="0.43" stop-color="#0F7C48"/>
<stop offset="1" stop-color="#090909"/>
</linearGradient>
<linearGradient id="paint7_linear_411_279" x1="115.344" y1="61.6823" x2="104.56" y2="72.5165" gradientUnits="userSpaceOnUse">
<stop stop-color="#CAE6FF"/>
<stop offset="0.43" stop-color="#0F7C48"/>
<stop offset="1" stop-color="#090909"/>
</linearGradient>
<linearGradient id="paint8_linear_411_279" x1="15.9945" y1="95.0596" x2="-2.0842" y2="113.221" gradientUnits="userSpaceOnUse">
<stop stop-color="#CAE6FF"/>
<stop offset="0.43" stop-color="#0F7C48"/>
<stop offset="1" stop-color="#090909"/>
</linearGradient>
<linearGradient id="paint9_linear_411_279" x1="39.7842" y1="97.8053" x2="25.1142" y2="112.543" gradientUnits="userSpaceOnUse">
<stop stop-color="#CAE6FF"/>
<stop offset="0.43" stop-color="#0F7C48"/>
<stop offset="1" stop-color="#090909"/>
</linearGradient>
<linearGradient id="paint10_linear_411_279" x1="51.5421" y1="91.5751" x2="47.7903" y2="95.344" gradientUnits="userSpaceOnUse">
<stop stop-color="#CAE6FF"/>
<stop offset="0.43" stop-color="#0F7C48"/>
<stop offset="1" stop-color="#090909"/>
</linearGradient>
<linearGradient id="paint11_linear_411_279" x1="55.2997" y1="101.232" x2="44.0558" y2="112.527" gradientUnits="userSpaceOnUse">
<stop stop-color="#CAE6FF"/>
<stop offset="0.43" stop-color="#0F7C48"/>
<stop offset="1" stop-color="#090909"/>
</linearGradient>
<linearGradient id="paint12_linear_411_279" x1="69.4125" y1="101.232" x2="58.1745" y2="112.527" gradientUnits="userSpaceOnUse">
<stop stop-color="#CAE6FF"/>
<stop offset="0.43" stop-color="#0F7C48"/>
<stop offset="1" stop-color="#090909"/>
</linearGradient>
<linearGradient id="paint13_linear_411_279" x1="65.6544" y1="91.5751" x2="61.9026" y2="95.344" gradientUnits="userSpaceOnUse">
<stop stop-color="#CAE6FF"/>
<stop offset="0.43" stop-color="#0F7C48"/>
<stop offset="1" stop-color="#090909"/>
</linearGradient>
<linearGradient id="paint14_linear_411_279" x1="79.7735" y1="91.5751" x2="76.0217" y2="95.344" gradientUnits="userSpaceOnUse">
<stop stop-color="#CAE6FF"/>
<stop offset="0.43" stop-color="#0F7C48"/>
<stop offset="1" stop-color="#090909"/>
</linearGradient>
<linearGradient id="paint15_linear_411_279" x1="83.5307" y1="101.232" x2="72.2868" y2="112.527" gradientUnits="userSpaceOnUse">
<stop stop-color="#CAE6FF"/>
<stop offset="0.43" stop-color="#0F7C48"/>
<stop offset="1" stop-color="#090909"/>
</linearGradient>
<linearGradient id="paint16_linear_411_279" x1="103.657" y1="96.153" x2="88.981" y2="110.891" gradientUnits="userSpaceOnUse">
<stop stop-color="#CAE6FF"/>
<stop offset="0.43" stop-color="#0F7C48"/>
<stop offset="1" stop-color="#090909"/>
</linearGradient>
<linearGradient id="paint17_linear_411_279" x1="126.53" y1="100.906" x2="113.721" y2="113.773" gradientUnits="userSpaceOnUse">
<stop stop-color="#CAE6FF"/>
<stop offset="0.43" stop-color="#0F7C48"/>
<stop offset="1" stop-color="#090909"/>
</linearGradient>
</defs>
</svg>
