<?xml version="1.0" encoding="utf-8"?>
<!-- Generator: Adobe Illustrator 23.1.1, SVG Export Plug-In . SVG Version: 6.00 Build 0)  -->
<svg version="1.1" id="Calque_1" xmlns="http://www.w3.org/2000/svg" xmlns:xlink="http://www.w3.org/1999/xlink" x="0px" y="0px"
	 viewBox="0 0 57 68" style="enable-background:new 0 0 57 68;" xml:space="preserve">
<path d="M56.9,24.4C56,10.4,44.2-0.4,30.3,0S5.2,11.9,5.2,26c0,1.4-0.3,2.8-0.9,4.1l-4,9c-0.4,1-0.4,2.1,0,3.1s1.3,1.8,2.3,2.1
	l2.6,0.8v8c0,3.4,2.7,6.1,6.1,6.1h8l1.6,5.6c0.6,2.2,2.9,3.5,5.1,2.9l25-7.2c2.2-0.6,3.5-3,2.9-5.2l-3.4-12.1
	C55.1,38.1,57.4,31.3,56.9,24.4z M47.3,41.7c-0.4,0.5-0.6,1.1-0.4,1.7l3.7,13c0.1,0.4-0.1,0.7-0.5,0.8l-25,7.2
	c-0.4,0.1-0.7-0.1-0.8-0.5l-1.9-6.9c-0.2-0.8-0.9-1.3-1.7-1.3h-9.4c-1.4,0-2.6-1.2-2.6-2.6V44c0-0.8-0.5-1.4-1.2-1.7L3.7,41
	c-0.1,0-0.2-0.1-0.2-0.2c0-0.1,0-0.2,0-0.3l4-9c0.8-1.7,1.2-3.6,1.2-5.5c0-6,2.4-11.7,6.6-16s9.9-6.6,15.9-6.6h0.1
	c9,0,17.1,5.4,20.6,13.7C55.3,25.5,53.5,35.1,47.3,41.7z M19.3,14c-5.2,5.3-6.4,13.3-2.9,19.9l-1.2,4.3c-0.3,1.1,0,2.3,0.8,3.1
	c0.8,0.8,2,1.1,3.1,0.8l4.2-1.2c7.6,4.1,17,1.7,21.7-5.5s3.3-16.9-3.3-22.4S25.4,7.9,19.3,14L19.3,14z M40.5,35.4
	c-4.3,4.3-11,5.2-16.2,2c-0.4-0.3-0.9-0.3-1.4-0.2l-4.3,1.3l1.3-4.4c0.1-0.5,0.1-1-0.2-1.4c-3.5-6-1.8-13.6,3.8-17.6
	s13.3-3,17.7,2.3S45.4,30.5,40.5,35.4z M32.9,26c0,1-0.8,1.8-1.7,1.8s-1.7-0.8-1.7-1.8s0.8-1.8,1.7-1.8c0.5,0,0.9,0.2,1.2,0.5
	S32.9,25.5,32.9,26L32.9,26z M38.4,26c0,1-0.8,1.8-1.7,1.8c-1,0-1.7-0.8-1.7-1.8s0.8-1.8,1.7-1.8c0.5,0,0.9,0.2,1.2,0.5
	C38.3,25.1,38.4,25.5,38.4,26L38.4,26z M27.4,26c0,1-0.8,1.8-1.7,1.8c-1,0-1.7-0.8-1.7-1.8s0.8-1.8,1.7-1.8c0.5,0,0.9,0.2,1.2,0.5
	C27.2,25.1,27.4,25.5,27.4,26L27.4,26z"/>
</svg>
